<?xml version="1.0" standalone="no"?>
<svg viewBox="0 0 200 200" xmlns="http://www.w3.org/2000/svg">
  <path fill="#FFC86B" d="M32.6,-58.5C39.9,-52.3,41.9,-38.8,50.9,-27.8C60,-16.9,76.2,-8.4,75.1,-0.7C73.9,7.1,55.5,14.2,46.2,24.8C36.9,35.4,36.7,49.3,30.5,53.3C24.4,57.3,12.2,51.3,-1.8,54.5C-15.8,57.7,-31.7,70,-39.3,66.8C-46.8,63.6,-46.1,44.9,-54.3,31.2C-62.5,17.5,-79.6,8.7,-76.4,1.8C-73.2,-5,-49.7,-10.1,-40.2,-21.5C-30.7,-32.9,-35.1,-50.6,-30.7,-58.6C-26.3,-66.6,-13.2,-64.7,-0.3,-64.3C12.7,-63.9,25.3,-64.8,32.6,-58.5Z" transform="translate(100 100)" />
</svg>
